<mxfile host="app.diagrams.net" agent="Mozilla/5.0 (X11; Linux x86_64; rv:130.0) Gecko/20100101 Firefox/130.0" version="24.7.17">
  <diagram name="Page-1" id="DFd8J0IAGyxxlXA4PeUh">
    <mxGraphModel dx="1217" dy="708" grid="1" gridSize="10" guides="1" tooltips="1" connect="1" arrows="1" fold="1" page="1" pageScale="1" pageWidth="850" pageHeight="1100" math="0" shadow="0">
      <root>
        <mxCell id="0" />
        <mxCell id="1" parent="0" />
        <mxCell id="Odh0C454Rl1ArQ2z5P-K-19" style="rounded=0;orthogonalLoop=1;jettySize=auto;html=1;exitX=1;exitY=0.5;exitDx=0;exitDy=0;entryX=0;entryY=0;entryDx=0;entryDy=0;" edge="1" parent="1" source="Odh0C454Rl1ArQ2z5P-K-1" target="Odh0C454Rl1ArQ2z5P-K-2">
          <mxGeometry relative="1" as="geometry" />
        </mxCell>
        <mxCell id="Odh0C454Rl1ArQ2z5P-K-1" value="&lt;div&gt;Ind. Characteristics&lt;/div&gt;&lt;div&gt;(race, gender, sexual orientation,...)&lt;br&gt;&lt;/div&gt;" style="rounded=1;whiteSpace=wrap;html=1;" vertex="1" parent="1">
          <mxGeometry x="120" y="100" width="120" height="60" as="geometry" />
        </mxCell>
        <mxCell id="Odh0C454Rl1ArQ2z5P-K-7" value="" style="rounded=0;orthogonalLoop=1;jettySize=auto;html=1;exitX=1;exitY=0.5;exitDx=0;exitDy=0;entryX=0;entryY=0.5;entryDx=0;entryDy=0;" edge="1" parent="1" source="Odh0C454Rl1ArQ2z5P-K-2" target="Odh0C454Rl1ArQ2z5P-K-4">
          <mxGeometry relative="1" as="geometry" />
        </mxCell>
        <mxCell id="Odh0C454Rl1ArQ2z5P-K-9" style="rounded=0;orthogonalLoop=1;jettySize=auto;html=1;exitX=1;exitY=0.5;exitDx=0;exitDy=0;entryX=0;entryY=0.5;entryDx=0;entryDy=0;" edge="1" parent="1" source="Odh0C454Rl1ArQ2z5P-K-2" target="Odh0C454Rl1ArQ2z5P-K-8">
          <mxGeometry relative="1" as="geometry" />
        </mxCell>
        <mxCell id="Odh0C454Rl1ArQ2z5P-K-2" value="Party Identification" style="whiteSpace=wrap;html=1;rounded=1;" vertex="1" parent="1">
          <mxGeometry x="310" y="230" width="120" height="60" as="geometry" />
        </mxCell>
        <mxCell id="Odh0C454Rl1ArQ2z5P-K-11" value="" style="rounded=0;orthogonalLoop=1;jettySize=auto;html=1;entryX=0;entryY=0;entryDx=0;entryDy=0;exitX=1;exitY=0.5;exitDx=0;exitDy=0;" edge="1" parent="1" source="Odh0C454Rl1ArQ2z5P-K-4" target="Odh0C454Rl1ArQ2z5P-K-10">
          <mxGeometry relative="1" as="geometry" />
        </mxCell>
        <mxCell id="Odh0C454Rl1ArQ2z5P-K-4" value="Political Issues" style="whiteSpace=wrap;html=1;rounded=1;" vertex="1" parent="1">
          <mxGeometry x="490" y="160" width="120" height="60" as="geometry" />
        </mxCell>
        <mxCell id="Odh0C454Rl1ArQ2z5P-K-12" style="rounded=0;orthogonalLoop=1;jettySize=auto;html=1;exitX=1;exitY=0.5;exitDx=0;exitDy=0;entryX=0;entryY=1;entryDx=0;entryDy=0;" edge="1" parent="1" source="Odh0C454Rl1ArQ2z5P-K-8" target="Odh0C454Rl1ArQ2z5P-K-10">
          <mxGeometry relative="1" as="geometry" />
        </mxCell>
        <mxCell id="Odh0C454Rl1ArQ2z5P-K-8" value="Political Candidates" style="whiteSpace=wrap;html=1;rounded=1;" vertex="1" parent="1">
          <mxGeometry x="490" y="300" width="120" height="60" as="geometry" />
        </mxCell>
        <mxCell id="Odh0C454Rl1ArQ2z5P-K-10" value="Vote" style="whiteSpace=wrap;html=1;rounded=1;" vertex="1" parent="1">
          <mxGeometry x="670" y="230" width="120" height="60" as="geometry" />
        </mxCell>
        <mxCell id="Odh0C454Rl1ArQ2z5P-K-18" style="rounded=0;orthogonalLoop=1;jettySize=auto;html=1;exitX=1;exitY=0.5;exitDx=0;exitDy=0;entryX=0;entryY=0.5;entryDx=0;entryDy=0;" edge="1" parent="1" source="Odh0C454Rl1ArQ2z5P-K-13" target="Odh0C454Rl1ArQ2z5P-K-2">
          <mxGeometry relative="1" as="geometry" />
        </mxCell>
        <mxCell id="Odh0C454Rl1ArQ2z5P-K-13" value="&lt;div&gt;Sociological Status&lt;/div&gt;&lt;div&gt;(education, occupation, ...)&lt;br&gt;&lt;/div&gt;" style="rounded=1;whiteSpace=wrap;html=1;" vertex="1" parent="1">
          <mxGeometry x="120" y="230" width="120" height="60" as="geometry" />
        </mxCell>
        <mxCell id="Odh0C454Rl1ArQ2z5P-K-17" style="rounded=0;orthogonalLoop=1;jettySize=auto;html=1;exitX=1;exitY=0.5;exitDx=0;exitDy=0;entryX=0;entryY=1;entryDx=0;entryDy=0;" edge="1" parent="1" source="Odh0C454Rl1ArQ2z5P-K-14" target="Odh0C454Rl1ArQ2z5P-K-2">
          <mxGeometry relative="1" as="geometry" />
        </mxCell>
        <mxCell id="Odh0C454Rl1ArQ2z5P-K-14" value="&lt;div&gt;Family Char.&lt;/div&gt;&lt;div&gt;(value, partisanship)&lt;br&gt;&lt;/div&gt;" style="rounded=1;whiteSpace=wrap;html=1;" vertex="1" parent="1">
          <mxGeometry x="120" y="360" width="120" height="60" as="geometry" />
        </mxCell>
        <mxCell id="Odh0C454Rl1ArQ2z5P-K-22" value="&lt;font style=&quot;font-size: 8px;&quot;&gt;&lt;span style=&quot;color: rgb(32, 33, 34); font-family: sans-serif; font-style: normal; font-variant-ligatures: normal; font-variant-caps: normal; font-weight: 400; letter-spacing: normal; text-align: left; text-indent: 0px; text-transform: none; word-spacing: 0px; -webkit-text-stroke-width: 0px; white-space: normal; text-decoration-thickness: initial; text-decoration-style: initial; text-decoration-color: initial; display: inline !important; float: none;&quot;&gt;Campbell, A., Converse, P.E., Miller, W.E., &amp;amp; Stokes, D.E. (1980)&lt;span&gt;&amp;nbsp;&lt;/span&gt;&lt;/span&gt;&lt;a style=&quot;text-decoration: none; color: var(--color-progressive,#36c); background-position: right center; background-repeat: no-repeat; background-attachment: scroll; background-image: url(&amp;quot;/w/skins/Vector/resources/skins.vector.styles/images/link-external-small-ltr-progressive.svg?fb64d&amp;quot;); background-size: 0.857em; background-origin: padding-box; background-clip: border-box; border-radius: 0px; overflow-wrap: break-word; padding-right: 1em; font-family: sans-serif; font-style: normal; font-variant-ligatures: normal; font-variant-caps: normal; font-weight: 400; letter-spacing: normal; text-align: left; text-indent: 0px; text-transform: none; word-spacing: 0px; -webkit-text-stroke-width: 0px; white-space: normal;&quot; href=&quot;https://books.google.com/books?id=JeYUrs_GOcMC&amp;amp;dq=the+american+voter+campbell&amp;amp;pg=PA18&quot; class=&quot;external text&quot; rel=&quot;nofollow&quot;&gt;&lt;i&gt;The American Voter&lt;/i&gt;.&lt;/a&gt;&lt;span style=&quot;color: rgb(32, 33, 34); font-family: sans-serif; font-style: normal; font-variant-ligatures: normal; font-variant-caps: normal; font-weight: 400; letter-spacing: normal; text-align: left; text-indent: 0px; text-transform: none; word-spacing: 0px; -webkit-text-stroke-width: 0px; white-space: normal; text-decoration-thickness: initial; text-decoration-style: initial; text-decoration-color: initial; display: inline !important; float: none;&quot;&gt;&lt;span&gt;&amp;nbsp;&lt;/span&gt;University of Chicago Press.&lt;/span&gt;&lt;/font&gt;" style="rounded=0;whiteSpace=wrap;html=1;fillColor=none;strokeColor=none;" vertex="1" parent="1">
          <mxGeometry x="220" y="430" width="570" height="30" as="geometry" />
        </mxCell>
      </root>
    </mxGraphModel>
  </diagram>
</mxfile>
